HIERARCHY
ROOT Hips
{
  OFFSET 1.44925e-005 102.336 -0.101585
  CHANNELS 6 Xposition Yposition Zposition Zrotation Xrotation Yrotation
  JOINT LeftUpLeg
  {
    OFFSET 8.9458 -8.66707 0.101652
    CHANNELS 3 Zrotation Xrotation Yrotation
    JOINT LeftLeg
    {
      OFFSET 0 -44.4227 1.3727
      CHANNELS 3 Zrotation Xrotation Yrotation
      JOINT LeftFoot
      {
        OFFSET -0.253549 -42.0924 -1.46059
        CHANNELS 3 Zrotation Xrotation Yrotation
        JOINT LeftToes
        {
          OFFSET -0.04 -4.41509 8.4991
          CHANNELS 3 Zrotation Xrotation Yrotation
          End Site
          {
            OFFSET 0.08 -0.047448 9.77979
          }
        }
      }
    }
  }
  JOINT Spine
  {
    OFFSET 0 11.8905 0
    CHANNELS 3 Zrotation Xrotation Yrotation
    JOINT Spine1
    {
      OFFSET 0 25.6574 0.127663
      CHANNELS 3 Zrotation Xrotation Yrotation
      JOINT RightShoulder
      {
        OFFSET -8.99 -0.362252 -0.22
        CHANNELS 3 Zrotation Xrotation Yrotation
        JOINT RightArm
        {
          OFFSET -10.2827 -0.00338 0.322123
          CHANNELS 3 Zrotation Xrotation Yrotation
          JOINT RightForeArm
          {
            OFFSET -26.364 0.099144 -1.42434
            CHANNELS 3 Zrotation Xrotation Yrotation
            JOINT RightHand
            {
              OFFSET -22.0324 0.085362 1.02216
              CHANNELS 3 Zrotation Xrotation Yrotation
              End Site
              {
                OFFSET -13.3284 -0.6 1.50291
              }
            }
          }
        }
      }
      JOINT LeftShoulder1
      {
        OFFSET 8.99 -0.362252 -0.22
        CHANNELS 3 Zrotation Xrotation Yrotation
        JOINT LeftArm
        {
          OFFSET 10.2827 -0.00337999 0.322123
          CHANNELS 3 Zrotation Xrotation Yrotation
          JOINT LeftForeArm
          {
            OFFSET 26.2597 0.099144 -1.42434
            CHANNELS 3 Zrotation Xrotation Yrotation
            JOINT LeftHand
            {
              OFFSET 22.0902 0.085362 1.02216
              CHANNELS 3 Zrotation Xrotation Yrotation
              End Site
              {
                OFFSET 13.419 -0.6 1.50291
              }
            }
          }
        }
      }
      JOINT Head
      {
        OFFSET 0 8.73416 0.011341
        CHANNELS 3 Zrotation Xrotation Yrotation
        End Site
        {
          OFFSET -0.29 12.7742 2.51395
        }
      }
    }
  }
  JOINT RightUpLeg
  {
    OFFSET -8.9458 -8.66707 0.101652
    CHANNELS 3 Zrotation Xrotation Yrotation
    JOINT RightLeg
    {
      OFFSET 0 -44.4227 1.3727
      CHANNELS 3 Zrotation Xrotation Yrotation
      JOINT RightFoot
      {
        OFFSET 0.253549 -42.0924 -1.46059
        CHANNELS 3 Zrotation Xrotation Yrotation
        JOINT RightToes
        {
          OFFSET 0.04 -4.41509 8.4991
          CHANNELS 3 Zrotation Xrotation Yrotation
          End Site
          {
            OFFSET -0.08 -0.137448 9.77979
          }
        }
      }
    }
  }
}
MOTION
Frames:	14
Frame Time:	0.0333333
15.6702 96.3387 3.24459 -12.5183 -0.90842 -90.7164 -1.9345 -19.2153 -3.98196 1.16109 35.2089 19.0543 -8.52281 -13.4358 -0.374101 -1.34741e-009 8.7522e-006 -1.47856e-008 5.75539 -7.75285 1.86224 -3.42003 1.28867 2.63896 35.0909 1.68204 0.0535658 46.6634 -14.8995 28.7452 13.0309 44.8905 0.446453 -11.5081 9.23957 1.71021 -42.4722 3.44817 -3.53883 -26.5333 -11.3273 12.949 -9.11185 36.8563 -9.33965 5.82328 9.61819 -0.917488 -1.96006 3.6252 -1.5939 0.946578 23.2748 -8.59771 -1.4482 18.6703 -10.0994 7.61402 -31.2831 1.32028 0.0462048 0.000530889 0.662642 
12.9272 95.758 3.8762 -12.3796 -0.108836 -92.5577 -2.13111 -18.3237 -3.31655 1.19599 35.8592 19.6918 -6.14337 -12.2204 -0.189624 -1.34741e-009 8.7522e-006 -1.47856e-008 5.10169 -7.81015 1.59825 -2.55008 1.3142 2.22039 35.4095 1.69236 0.0505335 47.2037 -17.1038 26.5655 15.7266 48.6855 -5.02797 -11.2719 9.30683 1.12337 -42.2261 3.42487 -3.5295 -27.2324 -8.83895 11.0895 -8.20704 34.3332 -11.121 5.82328 9.61819 -0.917488 -1.80482 2.79084 0.0969053 -0.0221375 24.4693 -8.49554 -2.13662 19.3514 -8.01094 9.3112 -31.9006 1.74158 0.0462048 0.000530889 0.662642 
10.0702 95.2186 4.57974 -12.4237 -0.147237 -93.8045 -2.97584 -17.6934 -3.42057 1.27345 38.1839 20.6114 -3.79001 -12.3641 -0.0956625 -1.34741e-009 8.7522e-006 -1.47856e-008 3.70044 -7.54906 1.09302 -1.12588 0.966529 1.54436 35.8898 1.70388 0.0363355 47.0561 -20.0378 23.465 18.1574 51.798 -10.1723 -11.7392 9.33543 0.531588 -42.2854 3.43916 -3.54947 -27.8645 -5.045 9.62702 -7.14658 30.2524 -13.4919 5.82328 9.61819 -0.917488 -1.73862 2.26299 1.59771 -1.11622 25.4187 -7.06111 -2.73357 21.0883 -7.4987 11.3131 -31.8235 2.18369 0.0462048 0.000530889 0.662642 
7.25124 94.8842 5.30863 -12.7422 -0.507003 -94.6572 -4.36358 -16.7373 -3.88374 1.36558 40.6698 21.869 -3.07697 -14.38 -0.114096 -1.34741e-009 8.7522e-006 -1.47856e-008 1.77751 -7.09878 0.600205 0.28125 0.603423 0.89271 36.4879 1.7142 0.00945119 45.9111 -23.9161 18.8986 19.1269 53.3757 -13.2024 -12.5532 9.33338 0.128808 -42.6665 3.49402 -3.60178 -27.8986 -1.45005 7.72735 -6.58379 27.1817 -15.0837 5.82328 9.61819 -0.917488 -1.68941 2.2142 2.59284 -2.56141 25.8952 -2.39138 -2.31437 24.348 -10.0284 14.7896 -30.8486 2.82832 0.0462048 0.000530889 0.662642 
4.59951 94.9638 6.0413 -13.2837 -1.1857 -95.5666 -5.91604 -14.6946 -3.89511 1.42802 41.3593 23.0732 -3.63724 -16.6023 -0.204304 -1.34741e-009 8.7522e-006 -1.47856e-008 0.0961604 -6.68758 0.440274 0.741929 0.56598 0.599263 36.9544 1.72254 -0.0104961 43.4141 -27.2932 12.5472 17.6135 52.5536 -12.4493 -12.6856 9.35247 -0.122936 -43.0013 3.54445 -3.65147 -27.4775 1.2153 4.99538 -6.35366 25.9429 -15.8092 5.82328 9.61819 -0.917488 -1.53478 2.54257 3.05146 -4.58534 25.1188 3.10067 -0.721197 29.6586 -13.4469 18.736 -28.2488 3.22483 0.0462048 0.000530889 0.662642 
2.10728 95.4464 6.76846 -13.815 -1.9192 -96.6226 -7.38583 -11.7413 -3.47053 1.44076 39.9034 24.0567 -4.0943 -17.6862 -0.273594 -1.34741e-009 8.7522e-006 -1.47856e-008 -0.997085 -6.31203 0.446487 0.331961 0.613449 0.51245 37.0462 1.72778 -0.00603099 40.1788 -28.7178 5.16263 15.0697 50.1443 -9.10944 -12.0973 9.39779 -0.31229 -42.9922 3.55042 -3.66486 -27.1722 3.82102 2.04853 -5.76145 24.6709 -16.9173 5.82328 9.61819 -0.917488 -1.34388 2.85971 3.34673 -6.66923 22.2131 3.35959 -0.999753 37.7307 -12.8193 19.8435 -22.6028 2.43672 0.0462048 0.000530889 0.662642 
-0.208309 96.0455 7.44673 -14.1703 -2.49863 -97.5044 -8.70392 -8.78919 -3.16262 1.43346 37.6833 24.94 -4.0541 -18.082 -0.282514 -1.34741e-009 8.7522e-006 -1.47856e-008 -1.97711 -5.69109 0.216487 0.0401749 0.396056 0.198376 36.7868 1.7289 0.0184503 37.2358 -27.9029 -1.78272 13.1919 47.7703 -5.34581 -11.6145 9.42587 -0.385554 -42.7518 3.52583 -3.65297 -26.9606 6.64948 -0.589504 -4.62071 22.2249 -19.0541 5.82328 9.61819 -0.917488 -1.30373 2.67787 3.89352 -8.13494 17.1263 3.0856 -1.25171 47.8445 -14.1342 17.2457 -13.9765 0.782158 0.0462048 0.000530889 0.662642 
-2.24492 96.5012 8.0082 -14.3897 -2.88755 -98.0715 -9.75684 -6.42045 -3.04037 1.43076 35.9507 25.6607 -4.02855 -18.6977 -0.299054 -1.34741e-009 8.7522e-006 -1.47856e-008 -3.37287 -4.76163 -0.26689 0.440128 0.111244 -0.47473 36.4389 1.72553 0.0401933 34.9164 -25.7997 -7.46538 12.1543 46.3793 -2.16455 -11.4591 9.42425 -0.29333 -42.5611 3.5088 -3.64841 -26.4059 8.08125 -3.29572 -3.54681 20.2686 -21.3942 5.82328 9.61819 -0.917488 -1.34735 1.87202 4.72897 -8.79145 11.096 2.7595 -1.61789 57.6193 -15.7339 13.8268 -6.46722 -0.320603 0.0462048 0.000530889 0.662642 
-4.11394 96.8703 8.435 -14.5329 -2.95812 -98.3578 -10.2766 -4.30938 -2.73924 1.41733 34.4787 25.9003 -4.11819 -19.5103 -0.333153 -1.34741e-009 8.7522e-006 -1.47856e-008 -4.91614 -3.91446 -0.817636 1.37067 0.113374 -1.31476 36.1973 1.71766 0.0428828 32.9277 -23.715 -12.1054 11.5193 45.9656 0.187129 -11.191 9.4145 -0.0466783 -42.4565 3.50464 -3.65644 -25.6158 7.27807 -6.44964 -2.86778 20.2812 -23.1572 5.82328 9.61819 -0.917488 -1.20481 0.979984 5.57745 -8.63007 5.26384 2.59754 -2.13062 65.576 -15.878 12.2444 -4.20447 -0.526649 0.0462048 0.000530889 0.662642 
-5.98081 97.316 8.75165 -14.549 -2.70497 -98.3137 -10.2338 -2.05888 -2.24453 1.37819 32.577 25.5804 -4.03227 -20.0359 -0.340153 -1.34741e-009 8.7522e-006 -1.47856e-008 -6.26704 -3.48426 -1.43684 2.53159 0.286596 -2.22188 36.0356 1.70756 0.0336079 31.0388 -22.4859 -16.1703 11.0695 46.069 1.5509 -10.7157 9.41075 0.258988 -42.2351 3.48671 -3.65478 -25.1569 5.50392 -9.64719 -2.26319 21.5518 -24.539 5.82328 9.61819 -0.917488 -0.829473 0.724046 6.23777 -7.84797 -0.128646 2.33893 -2.74335 71.2651 -14.8068 12.5953 -6.11291 -0.330571 0.0462048 0.000530889 0.662642 
-7.81163 97.7625 8.98325 -14.4182 -2.35319 -97.9575 -9.94156 0.0491639 -1.81978 1.32954 30.6321 24.977 -3.85759 -20.3857 -0.330945 -1.34741e-009 8.7522e-006 -1.47856e-008 -7.53759 -3.25977 -2.15473 3.72057 0.317246 -3.211 35.9124 1.70077 0.0266184 29.1713 -22.2581 -19.8308 10.8116 46.0599 1.94533 -10.332 9.42052 0.370242 -41.753 3.43537 -3.62542 -25.2388 3.82938 -12.3843 -1.41842 23.0808 -26.0044 5.82328 9.61819 -0.917488 -0.428304 1.1887 6.70544 -6.88032 -5.3555 1.85535 -3.37815 74.8599 -13.9896 13.4973 -8.427 -0.0864217 0.0462048 0.000530889 0.662642 
-9.56053 98.1529 9.1615 -14.2702 -2.01143 -97.4575 -9.57827 1.98796 -1.36651 1.30006 28.8855 24.2036 -3.6996 -20.7834 -0.32385 -1.34741e-009 8.7522e-006 -1.47856e-008 -8.63571 -2.91399 -2.87181 4.7246 0.169362 -4.15004 35.9258 1.69904 0.0253528 27.2621 -22.6694 -23.0808 10.679 45.5024 1.8757 -10.0903 9.44925 0.158856 -41.0862 3.35871 -3.57145 -25.6524 2.2162 -14.774 -0.472126 24.5866 -27.5559 5.82328 9.61819 -0.917488 -0.118351 1.79175 6.9932 -5.9358 -10.3114 1.33725 -3.88521 76.58 -14.2803 13.6401 -9.54851 0.0434552 0.0462048 0.000530889 0.662642 
-11.2634 98.4835 9.30513 -14.1683 -1.65942 -97.0186 -9.13629 3.94396 -0.509519 1.31046 27.1234 23.0872 -3.426 -21.194 -0.301881 -1.34741e-009 8.7522e-006 -1.47856e-008 -9.34581 -2.48818 -3.43682 5.44471 0.0662985 -4.84991 36.1231 1.69947 0.0186558 25.5217 -22.9476 -25.8629 10.4867 44.3836 2.04696 -9.77465 9.48679 -0.135778 -40.4718 3.28606 -3.51551 -26.0324 0.804252 -17.1184 0.304291 25.679 -28.9727 5.82328 9.61819 -0.917488 0.162859 2.02789 7.05179 -5.02458 -14.7021 1.05257 -4.00078 76.5757 -15.0565 13.5078 -10.613 0.163035 0.0462048 0.000530889 0.662642 
-12.9646 98.7328 9.4069 -14.0108 -1.34697 -96.6488 -8.6739 5.81523 0.530457 1.28327 25.3554 21.7901 -3.0278 -21.5908 -0.261961 -1.34741e-009 8.7522e-006 -1.47856e-008 -9.85892 -2.21152 -3.8525 6.10334 0.0810506 -5.3342 36.3149 1.70126 0.0156894 24.2837 -22.7681 -28.1025 10.2162 43.4274 2.61145 -9.30605 9.51475 -0.226967 -40.1347 3.247 -3.48558 -26.147 -0.268835 -19.2878 0.870017 26.3755 -30.2366 5.82328 9.61819 -0.917488 0.422706 1.89581 6.90535 -4.23994 -18.6265 0.93323 -3.67064 75.2059 -15.5948 13.8016 -11.996 0.331674 0.0462048 0.000530889 0.662642 
